<svg xmlns="http://www.w3.org/2000/svg" width="512" height="512" viewBox="0 0 512 512" version="1.1">
	<path d="M 251.308 65.010 C 245.973 67.159, 245.906 67.727, 246.214 107.852 C 246.499 144.832, 246.507 144.954, 248.755 147.201 C 251.854 150.298, 258.146 150.298, 261.245 147.201 C 263.487 144.960, 263.502 144.742, 263.816 109.723 C 264.172 69.941, 263.901 67.692, 258.469 65.422 C 254.611 63.811, 254.326 63.794, 251.308 65.010 M 317.354 72.787 C 316.174 72.966, 314.545 73.874, 313.734 74.806 C 310.381 78.659, 276.667 145.384, 276.667 148.167 C 276.667 154.436, 283.530 158.928, 288.798 156.108 C 291.203 154.821, 328 84.088, 328 80.753 C 328 75.650, 323.026 71.928, 317.354 72.787 M 182.589 76.077 C 181.165 77.769, 180.007 80.131, 180.015 81.327 C 180.023 82.522, 188.516 99.475, 198.889 119 C 215.783 150.800, 218.113 154.685, 221.249 156.273 C 224.031 157.681, 225.324 157.827, 227.544 156.983 C 234.646 154.283, 234.652 149.432, 227.569 136.217 C 224.581 130.645, 216.502 115.148, 209.614 101.780 C 202.726 88.411, 196.152 76.467, 195.006 75.237 C 191.757 71.750, 185.896 72.146, 182.589 76.077 M 348.173 140.075 C 337.324 141.483, 330.087 144.490, 321.174 151.294 C 318.245 153.531, 314.550 157.247, 312.963 159.554 C 310.219 163.542, 309.736 163.798, 303.067 164.787 C 285.724 167.361, 272.393 179.252, 270.402 193.923 C 269.879 197.777, 269.170 198.930, 265.919 201.220 C 263.795 202.716, 261.054 205.471, 259.828 207.342 L 257.597 210.744 254.825 206.917 C 253.300 204.812, 250.293 202.077, 248.141 200.839 C 244.661 198.836, 244.168 198.068, 243.671 193.872 C 241.974 179.544, 228.545 167.504, 211.273 164.824 C 204.774 163.815, 204.289 163.540, 199.275 158.007 C 189.940 147.705, 179.882 142.737, 164.541 140.852 C 149.242 138.972, 137.757 142.408, 128.042 151.773 C 122.910 156.719, 122.829 156.753, 115.189 157.209 C 106.276 157.742, 101.325 159.908, 95.860 165.665 C 90.974 170.813, 88.888 175.236, 88.593 181.076 C 88.395 184.987, 87.826 186.349, 85.687 188.032 C 83.755 189.551, 82.309 192.504, 80.407 198.812 C 78.966 203.591, 77.494 207.819, 77.135 208.209 C 76.776 208.598, 71.537 207.337, 65.491 205.405 C 44.186 198.596, 33.891 201.461, 23.826 217 C 22.065 219.718, 16.868 233.779, 10.705 252.500 C 0.997 281.991, 0.500 283.914, 0.500 292 C 0.500 303.059, 2.570 308.530, 8.907 314.222 C 12.900 317.809, 15.676 319.141, 26.085 322.463 C 32.913 324.643, 38.660 326.527, 38.855 326.651 C 39.050 326.775, 37.779 330.876, 36.030 335.764 C 33.088 343.990, 32.584 344.749, 29.273 345.946 C 24.133 347.804, 17.075 354.692, 14.358 360.500 C 8.157 373.758, 14.366 391.044, 27.787 397.891 C 29.841 398.939, 64.366 410.504, 104.511 423.590 C 185.278 449.920, 183.756 449.559, 194.058 444.818 C 209.984 437.488, 215.822 419.375, 207.236 403.928 L 204.695 399.357 229.437 322.015 C 247.105 266.787, 254.045 243.791, 253.709 241.587 C 253.451 239.889, 253.667 237.683, 254.189 236.685 C 255.734 233.735, 258.182 236.510, 257.456 240.388 C 257.009 242.772, 262.837 261.805, 282.379 321.790 L 307.886 400.080 305.545 403.528 C 300.290 411.273, 299.821 422.767, 304.394 431.792 C 307.346 437.615, 311.556 441.426, 318.637 444.681 C 328.893 449.397, 327.766 449.663, 407.998 423.542 C 447.871 410.560, 482.380 399.026, 484.684 397.911 C 494.124 393.341, 500.373 382.841, 500.405 371.500 C 500.421 365.622, 499.954 363.640, 497.491 359.136 C 494.319 353.335, 488.613 348.083, 482.924 345.728 C 479.747 344.413, 479.056 343.423, 476.743 336.874 C 475.311 332.818, 473.996 328.875, 473.820 328.112 C 473.597 327.144, 476.911 325.594, 484.754 322.995 C 490.944 320.944, 497.869 317.977, 500.144 316.400 C 507.809 311.088, 513.087 299.948, 512.882 289.514 C 512.792 284.931, 512.601 284.214, 512.083 286.500 C 511.455 289.263, 511.346 289.101, 510.692 284.446 C 509.571 276.453, 494.257 225.135, 491.014 218.500 C 489.401 215.200, 486.178 210.553, 483.852 208.174 C 474.440 198.547, 467.149 197.563, 448.581 203.411 C 442.069 205.462, 436.421 206.771, 436.030 206.320 C 435.640 205.869, 434.299 201.900, 433.051 197.500 C 430.551 188.688, 428.653 185, 426.615 185 C 425.734 185, 425.051 183.091, 424.620 179.426 C 423.790 172.364, 421.231 167.345, 416.095 162.705 C 410.360 157.523, 405.675 155.740, 397.581 155.658 C 390.781 155.589, 390.596 155.517, 386.833 151.435 C 381.980 146.170, 373.202 141.486, 365.566 140.087 C 358.997 138.883, 357.361 138.882, 348.173 140.075 M 148.239 157.269 C 143.325 159.150, 138.234 163.621, 135.985 168.030 C 132.764 174.344, 130.487 175.303, 120.670 174.486 C 112.405 173.797, 112.220 173.831, 109.091 176.643 C 106.173 179.265, 106.003 179.747, 107.023 182.500 C 107.634 184.150, 109.490 186.576, 111.147 187.892 C 115.070 191.007, 226.706 226.938, 232.576 226.974 C 235.634 226.994, 237.229 226.386, 238.963 224.539 C 241.046 222.322, 241.151 221.778, 240.020 219.048 C 238.691 215.840, 234.333 212.689, 229.721 211.602 C 225.912 210.705, 223.332 205.354, 224.749 201.289 C 226.224 197.059, 223.954 191.260, 219.129 186.931 C 214.374 182.665, 209.360 181, 201.269 181 C 194.299 181, 191.100 179.076, 188.014 173.027 C 185.319 167.746, 177.809 161.446, 171.305 159.013 C 164.461 156.452, 152.696 155.563, 148.239 157.269 M 345.197 158.559 C 335.538 161.158, 330.502 164.877, 324.893 173.550 C 320.393 180.508, 317.882 181.984, 310.846 181.805 C 304.314 181.638, 297.850 183.675, 293.482 187.275 C 288.613 191.289, 286.914 195.463, 287.636 201.637 C 288.330 207.573, 285.967 211.217, 280.234 213.048 C 275.448 214.577, 271 218.727, 271 221.664 C 271 224.528, 275.191 227.430, 278.252 226.685 C 279.488 226.385, 297.375 220.693, 318 214.038 C 338.625 207.383, 365.231 198.805, 377.125 194.975 C 395.333 189.113, 399.244 187.508, 401.875 184.817 C 406.137 180.457, 406.094 176.653, 401.750 173.942 C 399.492 172.533, 397.431 172.061, 395 172.395 C 379.339 174.545, 381.008 175.050, 375.003 166.356 C 369.337 158.152, 357.862 155.150, 345.197 158.559 M 80.050 256.754 C 49.699 350.239, 47.266 357.366, 45.124 359.101 C 44.020 359.995, 41.340 361.010, 39.167 361.357 C 36.326 361.812, 34.313 363.018, 31.998 365.655 C 29.181 368.863, 28.848 369.831, 29.328 373.410 C 30.113 379.260, 34 382.300, 45.214 385.832 C 50.321 387.441, 83.184 398.074, 118.242 409.460 C 167.586 425.486, 182.657 430.015, 184.965 429.508 C 186.605 429.148, 189.083 427.502, 190.473 425.850 C 194.065 421.580, 193.787 417.368, 189.500 411.136 C 187.339 407.995, 186 404.857, 186 402.935 C 186 401.222, 197.248 365.799, 210.995 324.217 C 228.790 270.390, 235.650 248.402, 234.810 247.882 C 233.455 247.045, 226.941 245.714, 226.505 246.186 C 226.346 246.358, 216.313 277.268, 204.210 314.874 C 188.263 364.424, 181.420 384.355, 179.353 387.270 C 177.767 389.505, 174.057 392.671, 171 394.396 C 166.300 397.049, 164.482 397.500, 158.500 397.500 C 152.340 397.500, 147.420 396.191, 117.500 386.596 C 98.800 380.599, 81.624 374.893, 79.330 373.916 C 69.639 369.788, 62.984 360.012, 62.862 349.722 C 62.812 345.536, 67.211 330.803, 84.900 275.924 C 97.055 238.212, 107 207.094, 107 206.772 C 107 206.361, 98.479 202.955, 97.572 203.004 C 97.532 203.006, 89.648 227.193, 80.050 256.754 M 410.226 205.789 C 407.875 206.692, 406.125 207.897, 406.338 208.466 C 406.551 209.034, 415.777 237.625, 426.842 272 C 437.906 306.375, 447.868 337.076, 448.979 340.225 C 450.091 343.374, 451 347.680, 451 349.794 C 451 359.739, 444.991 369.894, 436.747 373.876 C 429.530 377.363, 362.804 398.290, 357.362 398.773 C 348.581 399.553, 339.600 395.365, 334.622 388.170 C 333 385.826, 324.115 359.780, 310.026 316.068 C 297.895 278.431, 287.782 247.449, 287.552 247.219 C 286.913 246.579, 279.074 248.071, 278.540 248.935 C 278.282 249.353, 289.074 284.076, 302.524 326.098 C 315.973 368.119, 326.983 403.485, 326.989 404.689 C 326.995 405.893, 325.200 408.958, 323 411.500 C 320.120 414.827, 319 417.022, 319 419.338 C 319 425.243, 324.477 430, 331.277 430 C 333.863 430, 462.768 388.902, 475 384.178 C 479.458 382.456, 482.248 378.479, 482.764 373.107 C 483.178 368.800, 482.911 367.820, 480.732 365.641 C 479.352 364.261, 476.486 362.845, 474.362 362.494 C 468.505 361.526, 466.351 360.119, 464.628 356.134 C 463.764 354.135, 452.395 319.087, 439.363 278.250 C 426.332 237.412, 415.407 204.033, 415.085 204.074 C 414.763 204.114, 412.577 204.886, 410.226 205.789 M 121.174 221.165 C 119.558 226.299, 118.520 230.782, 118.867 231.127 C 119.215 231.472, 134.575 236.561, 153 242.437 C 171.425 248.312, 190.016 254.264, 194.313 255.663 C 198.611 257.062, 202.262 258.048, 202.427 257.853 C 203.025 257.151, 208 241.463, 208 240.282 C 208 239.616, 203.838 237.755, 198.750 236.148 C 187.735 232.668, 127.019 212.941, 125.306 212.286 C 124.544 211.994, 123.051 215.204, 121.174 221.165 M 383 214.074 C 379.975 215.063, 361.359 221.055, 341.632 227.388 C 321.905 233.721, 305.539 239.128, 305.264 239.403 C 304.457 240.210, 310.220 258, 311.289 258 C 311.824 258, 326.941 253.213, 344.881 247.361 C 362.821 241.510, 381.100 235.611, 385.500 234.253 C 389.900 232.895, 393.839 231.471, 394.253 231.089 C 394.852 230.536, 389.756 213.272, 388.761 212.481 C 388.617 212.367, 386.025 213.084, 383 214.074 M 46.500 217.796 C 44.332 218.228, 39.380 222.483, 37.924 225.165 C 35.479 229.670, 18.754 286.214, 18.287 291.553 C 17.546 300.025, 19.318 301.761, 33.429 306.390 C 39.440 308.362, 44.438 309.868, 44.536 309.737 C 44.634 309.607, 50.620 290.995, 57.839 268.378 C 65.058 245.760, 71.231 226.560, 71.557 225.711 C 72.024 224.496, 70.268 223.587, 63.325 221.448 C 52.050 217.974, 48.969 217.305, 46.500 217.796 M 451.250 220.087 C 446.163 221.740, 442 223.635, 442 224.297 C 441.999 226.015, 468.061 308.370, 468.847 309.135 C 470.081 310.335, 490.414 302.087, 492.750 299.439 C 496.805 294.842, 495.948 287.936, 488.380 264.234 C 484.739 252.830, 480.440 239.313, 478.827 234.195 C 475.008 222.074, 470.793 216.980, 464.634 217.040 C 462.360 217.062, 456.337 218.433, 451.250 220.087 M 97.140 296.122 C 88.692 322.576, 81.554 345.906, 81.278 347.966 C 80.337 354.977, 80.655 355.164, 109.612 364.545 C 142.957 375.349, 142.097 375.198, 144.838 370.763 C 146.972 367.309, 178.443 270.109, 177.675 269.341 C 177.066 268.733, 114.700 247.998, 113.518 248.011 C 112.958 248.018, 105.588 269.667, 97.140 296.122 M 351 264.342 C 333.675 269.976, 318.766 274.870, 317.870 275.216 C 316.460 275.760, 317.583 280.024, 326.155 306.673 C 331.608 323.628, 338.792 345.996, 342.119 356.380 C 348.571 376.514, 350.576 380, 355.704 380 C 357.242 380, 371.491 375.670, 387.369 370.377 L 416.238 360.754 415.626 356.286 C 414.956 351.401, 383.893 253.969, 383.031 254.049 C 382.739 254.076, 368.325 258.708, 351 264.342 M 0.328 291.500 C 0.333 295.350, 0.513 296.802, 0.730 294.728 C 0.946 292.653, 0.943 289.503, 0.722 287.728 C 0.501 285.952, 0.324 287.650, 0.328 291.500" stroke="none" fill="black" fill-rule="evenodd"/>
</svg>